# xmcd
#
# Track frame offsets: 
#        150
#        32968
#        67250
#        95615
#        120398
#        152965
#        176938
#        200856
#
# Disc length: 3115 seconds
#
# Revision: 1
# Processed by: cddbd v1.5.2PL0 Copyright (c) Steve Scherf et al.
# Submitted via: ExactAudioCopy v0.99pb5
#
DISCID=7b0c2908
DTITLE=Eric Le Lann - LeLann Kikosky Foster Weiss
DYEAR=2009
DGENRE=Plus Lion Music
TTITLE0=Yesterdays
TTITLE1=Ayam
TTITLE2=C'est la nuit Lola
TTITLE3=Le Bleu d'Hortense
TTITLE4=You don't know what love is
TTITLE5=Today I fell in love
TTITLE6=Hervé in Black and Blue
TTITLE7=Ayam (alt)
EXTD=YEAR: 2009
EXTT0=
EXTT1=
EXTT2=
EXTT3=
EXTT4=
EXTT5=
EXTT6=
EXTT7=
PLAYORDER=
